<svg xmlns="http://www.w3.org/2000/svg" width="170" height="117" fill="none"><path fill="#000" d="M95.6 116.2a8 8 0 0 0 3.8-2.3l.8-1.2.5-.8a22 22 0 0 0 2.3-5.7l.5-1.8.5-2 .6-4.2.4-4 .4-3.8a83.2 83.2 0 0 0 .5-12l-.2-4.2-.3-4c-.2-1.3-.2-2.7-.5-4l-.7-3.8-.6-4-.6-4-.4-2-.4-1.8-.7-4-.8-4-.7-3.8-.8-4-.8-4c-.2-1.3-.6-2.5-.9-3.8l-1-3.8c-.2-1.4-.5-2.7-.9-4l-.8-3.8-2-7.3-1-3.5-1.8-4c-.2-.5-.4-.5-.7-.5H87c0 .3.6 1.5.8 1.8l.9 2.1.7 1.8.5 2 1.1 3.6 2 7.7 1.8 7.7a340.6 340.6 0 0 1 4.7 23.3l1.4 8 .3 1.9.3 2 .3 1.9.4 1.9v.8l.5 3.7.4 3.9.1 4.3a42.5 42.5 0 0 1-.1 8l-.4 4-.3 3.8-.5 4-.1.4c-.5 3.4-1.2 6.8-2.5 10l-.9 1.7-.9 1.5-1 1c-.3.3-.6.5-1 .6l-.7.2-.4-.2-.1-.2-.3-1-.1-1.9v-1-1.2l.3-1.2a23.4 23.4 0 0 0 .6-3.8l.2-1.6.2-2.2.2-3.6V88v-2.8l-.1-1.8-.2-1.2a44.2 44.2 0 0 0-.8-4.5l-.2-1.5-.6-3-.4-1.4a11 11 0 0 0-.8-2c-.3-.6-1.1-.8-1.7-.5-.2.2-.5.5-.6.8 0 .3 0 .6.2 1 .4.9.6 1.8.8 2.6l.6 2.6.5 2.9.4 2.5.2 1.3.1 1V91.4l-.1 7.4c0 .7 0 1.3-.2 2l-.2 1.4-.3 1.8-.2 1.6-.4 2v-.1l-.2 2.1a16.5 16.5 0 0 0 .4 3.9l.3 1c.2.4.5.7 1 1 .1.2.4.4.6.4.3.2.8.3 1.2.3h.8zm-1.1-2.8z"/><path fill="#000" d="M88.3 101.3c.3 0 .5 0 .8-.2.4 0 .7-.3 1-.5l1-.7 1-1.2a13.4 13.4 0 0 0 2.5-5.5l.7-3.8V89l-.1-1c-.2-.2-.4-.4-.8-.5l-1 .1c-.2.1-.4.5-.5.8-.4 2-.5 4.2-1.4 6.2l-.7 1.4-.8 1.5-.3.2-.6.6a3 3 0 0 1-.7.4l-.3.1H88c-.3 0-.5 0-.8-.2l-.4-.2v-.1a1 1 0 0 1-.3-.5l-.4-1-.3-1.4-.3-1.4-.2-1.6-.4-1.5-.3-1.5-.4-3-.4-3.8-.4-3.9c0-1.4-.3-2.8-.5-4.1a28 28 0 0 0-1-4c-.1-.7-.8-1-1.5-.9-.6.2-1 .9-.9 1.6a82.5 82.5 0 0 1 1.6 9.5l.4 4 .6 4.1.3 2 .4 1.9.3 1.8.3 1.8.5 1.7.3.8.3.7.4.5.2.2.4.4.6.3.9.3h.5l.8.1h.1z"/><path fill="#000" d="M80.2 99.4a9 9 0 0 0 1.7-.6l1.6-1 1.2-1.2c.2-.3.3-.5.3-.9 0-.3 0-.6-.3-.9-.3-.2-.6-.4-1-.4l-.8.4-1 1.2-1.3.7-1.5.4h-.6-.3l-.7-.5-.6-.6-.3-.5c-.3-.7-.4-1.2-.5-1.9 0-1.2-.2-2.3-.3-3.5l-.1-1.8-.1-1.7-.1-1.8-.1-1.8c0-1.2-.2-2.6-.4-3.8-.2-1.2-.3-2.5-.6-3.7l-.3-1.6-.4-1.8c0-.3 0-.6-.3-.8-.3-.2-.6-.3-1-.3-.2 0-.6 0-.8.3-.2.2-.4.6-.4 1l.8 4 .5 3.7.4 3.3v1.9L73 87l.2 1.7v1.8l.3 2 .2 2c.2 1.1.5 2.3 1.3 3.2.4.5.9.8 1.4 1.2.6.5 1.3.7 2 .8h.3l1.5-.3z"/><path fill="#000" d="M70.4 98.2a5 5 0 0 0 2.3-.7 5 5 0 0 0 1.6-1.2l.8-1c.3-.6 0-1.4-.5-1.7-.3-.2-.6-.2-1-.2-.2 0-.5.3-.7.6l-.4.6-.3.4-.9.4a2 2 0 0 1-.8.2H69c-.1-.2-.3-.2-.4-.3l-.2-.3-.7-1.2c-.5-1.3-1-2.6-1.1-4l-.2-3-.1-1.8-.1-1.8-.2-2v-1.7c0-.6 0-1.2-.2-1.8 0-.6 0-1.3-.2-2l-.1-.7v.3l-.2-1.7c0-.5-.1-1-.3-1.4-.2-.7-.9-1.1-1.6-1-.6.3-1 1-.8 1.7l.4 2.5.1 1 .2 1.4.1 1.9.1 1.7.1 2 .2 1.8V87l.3 3.6c.2 1.2.5 2.4.9 3.4l.8 2a4.6 4.6 0 0 0 2.8 2.3H70.4zm1.8-3.3z"/><path fill="#000" d="M61.7 96.8c.5 0 1-.2 1.6-.4a5 5 0 0 0 1.8-1.1l1.2-1.5c.2-.2.2-.7.1-1 0-.3-.3-.5-.6-.7-.3-.2-.6-.2-.9-.1-.3 0-.6.3-.8.5l-.2.4a3 3 0 0 1-.6.7l-.8.4-1 .3-1.1.3h-.1l-.2-.1-.3-.2-.5-.4c0-.3-.2-.5-.3-.7-.4-.8-.5-1.5-.6-2.4v-.5l-.2-1.1-.4-3.7-.3-3.8-.4-3.8c0-.6 0-1.3-.2-1.9v-2c-.1-1.1-.3-2.3-.3-3.5l-.4-4-.3-3.9-.4-3.6-.4-3.8v.4l-1-7.8-.5-3.7-.6-3.7c-.4-2.4-1-4.7-1.5-7.1l-.8-3.6-.9-3.7a60.2 60.2 0 0 0-1.3-4.8l-.5-1.6-1-3.2-1.4-3.4.1.3-.6-1.5-.8-1.8-.9-2.1-1.1-2.6-1-2-.8-1.7.2.4-.5-1c0-.3-.2-.5-.4-.7V.2l-.4-.2h-1.1c-1.8 0-1.8-.2-.8 1.3l.5 1 .3.5 1.2 2.6 1.5 3 .7 2 1 2.1-.1-.1V12.6l.5 1c0 .3.2.7.4 1l-.1-.3c.4 1 .9 2.1 1.2 3.3l1.1 3.4.6 1.7.5 1.5.9 3.5.9 3.6.8 3.6.7 3.5.7 3.6a71.9 71.9 0 0 1 1 6.7l1 7.5v-.3c0 1.2.2 2.4.4 3.6 0 1.3.2 2.6.3 3.8l.4 4c.1 1.3.3 2.5.3 3.8.2 1.2.2 2.4.3 3.7l.2 3.8.4 3.8.4 3.8.4 3.6v-.3L56 91l.3 1.7c.1.6.3 1.1.6 1.6.2.6.6 1.1 1 1.6.6.5 1.2 1 1.9 1l.6.1c.3.2.8 0 1.3-.2zM85.6 62.6h3.9c.6 0 1.2-.6 1.2-1.3 0-.7-.6-1.3-1.2-1.3l-3.9.1c-.3 0-.6.1-.9.4-.2.2-.4.5-.4.9 0 .6.5 1.2 1.2 1.2h.1zM80 61.8c.2-.2.3-.6.3-.9 0-.3-.1-.6-.4-.9-.2-.2-.5-.3-.9-.3l-2-.3-1 .1c-.2.2-.5.5-.6.8-.1.6.2 1.4 1 1.6.4 0 1 0 1.4.2h1.3c.3 0 .6-.1.8-.3zM69.6 61.4c.7 0 1.3-.5 1.3-1.2s-.6-1.3-1.3-1.3h-2l-2-.2c-.6 0-1.2.6-1.2 1.3 0 .7.6 1.2 1.3 1.2l2 .2H69.6zM96.4 25.9c0-.7-.5-1.3-1.2-1.3-2.5-.3-5-.4-7.4-.5l-3.5-.2c-1.3-.1-2.6-.2-4 0l-1 .2c-.3 0-.6 0-.9.3-.2.2-.4.5-.4.9-.1.3 0 .7.3.8.2.3.5.5.9.5.7 0 1.4-.1 2-.3h3.3l3.4.3c2.4.1 4.8.2 7.1.5h.1c.7 0 1.3-.6 1.3-1.2z"/><path fill="#000" d="M74.4 31c.7-.1 1.3-.4 1.9-.8a6 6 0 0 0 1.5-1.2l1-1.2.4-1.5.3-2.1c0-.7 0-1.4-.2-2.1a8.5 8.5 0 0 0-1.7-3.5c-.5-.6-1.3-1-2.1-1.3l-1.8-.6c-.7 0-1.4-.3-2.2-.2-.7 0-1.4.1-2 .3a5 5 0 0 0-2 1.1c-.4.5-.8 1-1.1 1.7l-.5.8-.3.7-.1.6-.3 2.4c0 .5.1.9.3 1.3 0 .6.3 1 .5 1.4.3.7.7 1.3 1.1 1.8l.1.9.7.6a11 11 0 0 0 4.1 1h.5l1.9-.1zm-3.1-2.5c-.4 0-.8-.2-1.1-.3l-.4-.2c0-.3-.1-.6-.3-.8l-.7-.7c-.3-.5-.6-1-.7-1.6-.2-.3-.2-.6-.3-1l.1-1.7.2-.7 1-1.7.5-.4.5-.2 1.2-.3 1.5.2c.7.2 1.4.3 2.1.7l.6.3.4.4.7 1.5.4 1.6c0 .5 0 1.2-.2 1.7 0 .5-.2.8-.3 1.3l-.3.4-1 1-1 .4-1.2.3-1.7-.2zm-2-8.7v-.1z"/><path fill="#000" d="M49.7 29.5l1.1-.2 2.4-.2 1.7-.2 1.6-.4 3.2-.5H62l2.5-.3h1.9c.7 0 1.3-.5 1.3-1.2s-.5-1.3-1.2-1.3h-2l-2 .2-2.1.1c-.8 0-1.7.1-2.5.3-.8 0-1.6.3-2.4.4l-2.3.4h.1l-1.7.2c-.8 0-1.6 0-2.4.2-.7.1-1.1.8-1 1.5.2.6.8 1 1.3 1h.3zm3.1-.4h.1zM79.4 20.1l1.8-.1 1.1-.2H88l2.8-.2H92l1.5.1c.7 0 1.3-.5 1.3-1.2s-.5-1.3-1.2-1.3H83.1l-2 .2-1.4.2h-2.9c-.7 0-1.2.5-1.3 1.2 0 .6.5 1.3 1.2 1.3h2.7zM48.6 22c.2 0 .4-.2.5-.3h.2l.3-.1h1.2l1.4-.3L55 21l1.5-.2h2l1.7-.3h1l1.5-.2 2.2-.2h2.9c.7 0 1.3-.5 1.4-1.2 0-.7-.5-1.3-1.2-1.3l-1.6-.1h-1.5l-1.6.2-1.2.2h-1.8l-2.2.2-2.1.1h.2l-3 .3-1.3.2-.7.1-.7.1h-.3l-1 .1-.4.1-.1.1-.6.2c-.2 0-.5.3-.6.5-.2.2-.3.6-.2 1 0 .3.2.6.5.7l.7.2c0 .2.2.2.2.1zM12 39l.6-.3 2-2.3 2.1-2.3 2-2.3c.8-.7 1.4-1.6 2-2.3l3.8-4.7 4-4.8 1.8-2.3c.3-.3.3-1-.1-1.3a1 1 0 0 0-1.3.1c-1.4 1.7-2.8 3.3-4 5-.8.7-1.4 1.5-2.1 2.4L21 26.2 17 31l-4 4.6-1.9 2c-.2.2-.2.4-.2.7l.3.6.7.2zM16.6 19l2.4-1.9 2.5-1.8c.5-.3.5-.9.3-1.3-.3-.5-.9-.5-1.3-.3l-2.6 1.8-2.4 2-.3.6v.7l.7.4h.2l.5-.1zM32.7 27.4c.4-.6.8-1.1 1-1.7.4-.6.6-1.3.9-1.9.2-.5 0-1-.4-1.3-.5-.1-1.1 0-1.3.5l-1.3 2.7c0 .2-.2.3-.3.5-.4.4-.4 1 0 1.3l.7.3c.3 0 .5-.2.7-.4zM9.7 23c0-.6-.4-1-1-1a1 1 0 0 0-.9 1c0 .4.5.9 1 .9s1-.5 1-1zM35.2 38.8c0-.5-.4-1-1-1a1 1 0 0 0-.9 1c0 .5.5 1 1 1s1-.5 1-1zM13.3 10.4c.4 0 .8-.2 1.2-.4.3 0 .7-.4.8-.7l.2-.1.4-.2.4-.5v-.8l-.4-.8c-.4-.7-1-1.2-1.6-1.5-.7-.2-1.3-.2-2 0l-.7.4-.4.4c-.1.1-.3.2-.3.4a2 2 0 0 0-.4.9v1.3c.2.5.5.9.9 1.1.2.2.5.3.9.4l.8.1h.2zm-.4-2h-.4l-.1-.1-.1-.3v-.2l.1-.2.2-.2.2-.1.3-.1h.5l.2.2.1.1.2.3-.1.2c-.2.1-.2.3-.4.3l-.1.2H13 13zm-.6-.1zM1.3 13.1l2.9-.8c.5-.2.8-.7.6-1.2-.1-.5-.7-.8-1.1-.7l-2.9 1c-.5 0-.8.5-.6 1 .1.5.5.7 1 .7 0 .1 0 0 .1 0zM117.3 12.4l1.7-.1 1.4-.1h3l3.2-.2h5.3c.5 0 1-.4 1-1 0-.5-.5-.9-1-.9h-6.3c-2 .1-4 0-6.1.2l-2.2.2a1 1 0 0 0-1 1c0 .4.4 1 1 1zM136.9 32a1 1 0 0 0-.7-1l-2.1-.8-2-.7L129 28h.1c-.3 0-.5-.1-.8-.3l.3.2a23 23 0 0 0-2.2-1c-.5-.1-1 .3-1.2.8l.1.7c.1.3.3.4.6.5l1.6.6.6.3-.2-.2.7.4 3.5 1.5 1.5.6 2 .7h.3c.5 0 .8-.4 1-.8zm-9.6-2.6h-.1.1zM123.1 42.4c.4-.4.4-1 0-1.3a52 52 0 0 1-2-1.8l-2-2.1-1.7-2-2-2c-.3-.4-1-.3-1.3 0a1 1 0 0 0-.2.7l.2.7 2 2 1.8 2 2 2 1.9 1.9c.2.2.4.2.7.2.2 0 .4 0 .6-.3zM110.1 26.8c.4-.5.5-1.1.6-1.7l-.1-.6.3-.4v-.8c-.2-.3-.4-.3-.6-.4l-.9-.4c-.6-.2-1.3-.4-2-.1-.2 0-.3.1-.5.3a4 4 0 0 0-.5.5l-.3.5-.1.4v1l.2.8.4.6c.3.3.7.5 1 .6l.7.2.5.1c.5 0 1-.2 1.3-.6zm-1.4-1.4h-.4l-.2-.1-.1-.2V25l-.1-.2v-.2-.3l.1-.1h.2l.4.1.1.5v.6zm-.8-1.2h.1zm.2 0l.2-.1h-.2zM146.5 20.5l.4-.2.3-.3c.3-.2.4-.6.5-.9l.2-1 .3-.1c.3-.3.4-1 0-1.3l-.5-.5c-.2-.3-.4-.5-.7-.6-.3-.3-.6-.5-1-.6-.5-.2-1-.2-1.6-.1-.8.3-1.5.9-2 1.7l-.1.4a2 2 0 0 0 0 1.1c0 .7.5 1.2 1 1.5.1.2.3.2.5.3l.7.3.6.2h.3l.4.1h.7zm-.6-2c-.3 0-.6 0-1-.2l-.6-.3-.1-.2v-.3l.2-.4.2-.2.3-.1H145.5l.3.2.3.2v.9l-.2.5zm-1.8-.8zM134.4 19.1c0-.5-.4-1-1-1a1 1 0 0 0-.9 1c0 .5.4 1 1 1 .5 0 .9-.4.9-1zM107.5 16.9c0-.5-.4-1-1-1a1 1 0 0 0-.9 1c0 .5.5 1 1 1s1-.5 1-1zM133.1 47.7c0-.5-.4-1-1-1a1 1 0 0 0-.9 1c0 .5.5 1 1 1s1-.5 1-1zM125.8 65.3c0-.5-.4-1-1-1a1 1 0 0 0-.9 1c0 .5.5 1 1 1s1-.5 1-1zM147.8 48.8c0-.5-.4-1-.9-1a1 1 0 0 0-1 1c0 .5.5 1 1 1s1-.5 1-1zM170 14c0-.4-.4-.9-1-.9a1 1 0 0 0-.9 1c0 .5.4 1 1 1 .5 0 .9-.5.9-1z"/></svg>
